<svg version="1.1" xmlns="http://www.w3.org/2000/svg" viewBox="0 0 123.3667398714972 143.52967180386986" width="123.3667398714972" height="143.52967180386986"><!-- svg-source:excalidraw --><metadata></metadata><defs><style class="style-fonts">
      </style></defs><g stroke-linecap="round" transform="translate(38.971089057876384 48.46630938243874) rotate(0 19.242950646112092 17.443250225972093)"><path d="M13.36 0.92 C17.03 -0.02, 23.53 0.8, 27.35 2.25 C31.17 3.71, 34.5 6.45, 36.28 9.65 C38.05 12.86, 39.07 17.93, 37.98 21.49 C36.88 25.06, 33.13 28.71, 29.72 31.03 C26.31 33.35, 21.37 35.71, 17.51 35.4 C13.66 35.09, 9.56 31.83, 6.57 29.16 C3.58 26.5, -0.03 22.93, -0.41 19.4 C-0.79 15.87, 1.55 11.31, 4.28 8 C7 4.69, 14.15 0.87, 15.95 -0.48 C17.74 -1.82, 15.28 -0.63, 15.05 -0.06 M24.46 0.24 C28.11 1.19, 34.3 3.83, 36.57 7.2 C38.84 10.57, 38.93 16.4, 38.06 20.45 C37.2 24.5, 34.43 29.02, 31.38 31.51 C28.33 34, 23.68 35.38, 19.77 35.39 C15.86 35.39, 11.24 33.78, 7.94 31.52 C4.65 29.26, 1.03 25.67, 0.01 21.8 C-1.01 17.94, -0.03 11.92, 1.85 8.33 C3.73 4.75, 7.15 1.51, 11.29 0.3 C15.44 -0.92, 24.5 0.72, 26.72 1.04 C28.93 1.36, 25.11 2.18, 24.61 2.21" stroke="#1e1e1e" stroke-width="4" fill="none"></path></g><g stroke-linecap="round" transform="translate(18.910367496467074 23.626431296096428) rotate(0 10.21014630221697 9.36441399551859)"><path d="M7.53 0.93 C9.59 0.2, 12.1 -0.22, 14.11 0.45 C16.13 1.12, 18.71 3.16, 19.62 4.93 C20.52 6.71, 20.12 8.97, 19.52 11.08 C18.92 13.2, 17.57 16.45, 16.03 17.62 C14.48 18.78, 12.51 18.28, 10.26 18.09 C8.01 17.89, 4.08 17.66, 2.51 16.43 C0.94 15.21, 0.79 12.97, 0.83 10.75 C0.87 8.53, 1.55 4.99, 2.75 3.09 C3.95 1.2, 6.94 -0.25, 8.04 -0.6 C9.13 -0.95, 9.05 0.57, 9.33 1 M6.86 -0.72 C8.91 -1.45, 11.07 -0.53, 13.01 0.42 C14.94 1.37, 17.17 3.2, 18.48 4.95 C19.78 6.71, 20.87 8.97, 20.83 10.96 C20.79 12.94, 19.96 15.36, 18.24 16.87 C16.52 18.37, 12.98 20.07, 10.51 20 C8.03 19.93, 5.33 17.99, 3.41 16.44 C1.48 14.9, -0.82 12.63, -1.05 10.75 C-1.28 8.87, 1 6.69, 2.03 5.16 C3.06 3.64, 4.67 2.56, 5.13 1.61 C5.6 0.66, 4.39 -0.5, 4.81 -0.52" stroke="#1e1e1e" stroke-width="4" fill="none"></path></g><g stroke-linecap="round" transform="translate(88.23300682155354 10) rotate(0 12.566866524971829 12.001652409899123)"><path d="M14.23 -0.26 C16.81 -0.19, 20.55 1.83, 22.28 3.74 C24 5.65, 24.59 8.45, 24.58 11.19 C24.57 13.94, 23.69 18.22, 22.22 20.22 C20.76 22.22, 18.51 22.75, 15.79 23.2 C13.07 23.64, 8.26 23.96, 5.89 22.89 C3.52 21.82, 2.29 19.4, 1.58 16.77 C0.87 14.14, 0.99 9.73, 1.62 7.09 C2.25 4.46, 3.24 1.98, 5.36 0.97 C7.47 -0.03, 12.46 0.97, 14.28 1.07 C16.11 1.16, 16.32 1.6, 16.29 1.52 M9.11 0.45 C11.38 0.03, 15 0.68, 17.55 1.83 C20.1 2.98, 23.04 5.06, 24.41 7.37 C25.77 9.69, 26.57 13.12, 25.75 15.73 C24.94 18.35, 22.02 21.78, 19.54 23.08 C17.05 24.38, 13.69 24.09, 10.83 23.53 C7.98 22.98, 4.05 21.5, 2.41 19.76 C0.77 18.02, 1.19 15.41, 0.99 13.11 C0.79 10.82, 0.06 8.37, 1.2 6.02 C2.33 3.66, 6.28 -0.11, 7.81 -1.03 C9.34 -1.95, 10.18 0.21, 10.39 0.51" stroke="#1e1e1e" stroke-width="4" fill="none"></path></g><g stroke-linecap="round" transform="translate(10.000000000000114 92.51488618009898) rotate(0 10.358043743066276 9.582760920665976)"><path d="M13.64 -0.03 C15.67 0.4, 17.4 1.83, 18.56 3.74 C19.71 5.65, 20.63 9.38, 20.59 11.43 C20.54 13.48, 20 14.69, 18.28 16.05 C16.57 17.42, 12.55 19.32, 10.31 19.61 C8.06 19.89, 6.35 19.22, 4.82 17.74 C3.29 16.27, 1.89 12.96, 1.14 10.74 C0.39 8.53, -0.39 5.99, 0.34 4.46 C1.08 2.92, 2.99 1.95, 5.54 1.53 C8.09 1.11, 14.01 2, 15.65 1.91 C17.29 1.83, 15.66 0.96, 15.38 1.02 M5.18 1.88 C7.07 0.93, 10.54 0.29, 12.93 0.7 C15.32 1.11, 18.27 2.58, 19.52 4.33 C20.76 6.07, 20.77 9.28, 20.42 11.15 C20.07 13.01, 19.04 14.33, 17.39 15.52 C15.75 16.72, 12.46 17.92, 10.54 18.29 C8.62 18.66, 7.7 18.55, 5.86 17.74 C4.02 16.94, 0.58 15.64, -0.51 13.45 C-1.61 11.25, -1.88 6.66, -0.71 4.59 C0.46 2.51, 5.56 1.68, 6.51 1 C7.46 0.31, 5.1 0.37, 5 0.47" stroke="#1e1e1e" stroke-width="4" fill="none"></path></g><g stroke-linecap="round" transform="translate(40.88271561399881 107.73731245592649) rotate(0 13.65449215450883 12.896179673971687)"><path d="M10.19 -0.41 C12.84 -0.96, 17.12 0.75, 19.96 2.05 C22.8 3.36, 26.19 4.86, 27.23 7.39 C28.27 9.93, 27.1 14.43, 26.18 17.26 C25.27 20.09, 23.98 23.11, 21.74 24.37 C19.5 25.62, 15.9 25.36, 12.73 24.78 C9.56 24.2, 4.98 22.65, 2.72 20.89 C0.45 19.14, -1 16.72, -0.86 14.23 C-0.72 11.73, 1.48 8.44, 3.54 5.93 C5.6 3.42, 9.85 0.06, 11.48 -0.81 C13.11 -1.68, 13.33 0.37, 13.33 0.72 M14.24 0.5 C17.24 0.35, 21.45 1.85, 23.55 3.77 C25.65 5.7, 26.63 9.51, 26.83 12.05 C27.02 14.59, 26.38 16.97, 24.72 19.01 C23.06 21.05, 19.38 23.28, 16.9 24.28 C14.41 25.28, 12.51 25.68, 9.82 24.98 C7.12 24.29, 2.57 22.75, 0.73 20.1 C-1.1 17.45, -2.1 11.98, -1.21 9.09 C-0.33 6.21, 3.62 4.45, 6.03 2.8 C8.44 1.14, 11.94 -0.35, 13.23 -0.84 C14.51 -1.33, 13.61 -0.45, 13.72 -0.13" stroke="#1e1e1e" stroke-width="4" fill="none"></path></g><g stroke-linecap="round" transform="translate(79.87101604716577 93.16992695554109) rotate(0 9.37548257990295 9.36441399551859)"><path d="M7.13 0.84 C9.2 0.29, 12.76 -0.5, 14.48 0.37 C16.21 1.24, 16.7 4.02, 17.48 6.06 C18.26 8.09, 19.49 10.87, 19.16 12.57 C18.82 14.27, 17.41 15.36, 15.47 16.26 C13.52 17.17, 9.79 17.93, 7.5 17.99 C5.21 18.05, 2.85 17.82, 1.72 16.63 C0.59 15.45, 0.83 13.16, 0.71 10.87 C0.59 8.59, -0.17 4.66, 1.01 2.93 C2.2 1.21, 6.57 0.99, 7.83 0.51 C9.09 0.04, 8.47 0.05, 8.58 0.1 M12.67 0.96 C14.42 1.44, 15.77 3.71, 16.67 5.14 C17.56 6.58, 18.34 7.93, 18.03 9.58 C17.72 11.24, 15.92 13.58, 14.8 15.1 C13.68 16.61, 13.25 18.2, 11.3 18.68 C9.35 19.16, 5.16 19.34, 3.1 17.98 C1.04 16.61, -0.87 12.59, -1.08 10.49 C-1.28 8.4, 0.91 7.14, 1.88 5.41 C2.84 3.68, 3.1 1.03, 4.72 0.11 C6.34 -0.81, 10.43 -0.13, 11.6 -0.11 C12.76 -0.09, 12 0.05, 11.73 0.22" stroke="#1e1e1e" stroke-width="4" fill="none"></path></g><g stroke-linecap="round"><g transform="translate(35.75150196595769 40.632987671773776) rotate(0 3.930244652653073 5.8953669789796095)"><path d="M-0.57 -0.66 C0.68 1.27, 5.49 9.48, 7.01 11.75 M1.33 1.61 C3.01 3.72, 8.14 11.66, 9.27 13.26" stroke="#1e1e1e" stroke-width="4" fill="none"></path></g></g><mask></mask><g stroke-linecap="round"><g transform="translate(75.33624556085351 52.17613892103401) rotate(0 7.391820383402546 -10.466034515299071)"><path d="M-0.85 -0.05 C1.82 -3.24, 12.99 -16.22, 15.48 -19.8 M0.9 -1.12 C3.53 -4.55, 12.28 -18.1, 14.89 -21.33" stroke="#1e1e1e" stroke-width="4" fill="none"></path></g></g><mask></mask><g stroke-linecap="round"><g transform="translate(72.6521323158671 78.84369957256752) rotate(0 5.021979278389949 7.205448529863986)"><path d="M0.69 1.13 C2.39 3.44, 7.67 11.46, 9.32 13.83 M-0.4 0.68 C1.76 3.15, 9.9 12.93, 11.65 15.07" stroke="#1e1e1e" stroke-width="4" fill="none"></path></g></g><mask></mask><g stroke-linecap="round"><g transform="translate(56.6927921079905 83.4289850006628) rotate(0 -0.8133436842387027 11.899000186463383)"><path d="M-0.73 -0.58 C-1.03 3.36, -1.05 20.5, -1.09 24.74 M1.09 1.74 C0.62 5.86, -1.35 19.56, -1.75 23.12" stroke="#1e1e1e" stroke-width="4" fill="none"></path></g></g><mask></mask><g stroke-linecap="round"><g transform="translate(41.367311164629655 77.12615995493991) rotate(0 -7.065669639710109 6.7541367877934135)"><path d="M0.54 0.94 C-1.58 3.47, -10.82 12.66, -13.45 14.59 M-0.64 0.4 C-2.79 2.66, -11.99 10.88, -14.03 13.03" stroke="#1e1e1e" stroke-width="4" fill="none"></path></g></g><mask></mask></svg>