<svg width="79" height="79" viewBox="0 0 79 79" fill="none" xmlns="http://www.w3.org/2000/svg">
<path d="M0 16C0 7.16344 7.16344 0 16 0H63C71.8366 0 79 7.16344 79 16V63C79 71.8366 71.8366 79 63 79H16C7.16344 79 0 71.8366 0 63V16Z" fill="#FAFAFA"/>
<path d="M62.4545 10C58.8447 10 55.9091 12.9356 55.9091 16.5455C55.9091 17.6745 56.196 18.7371 56.7011 19.6655L45.9785 30.388C44.5004 29.2371 42.6502 28.5455 40.6364 28.5455C38.6225 28.5455 36.7724 29.2371 35.2931 30.3869L26.9269 22.0207C27.3109 21.3716 27.5455 20.6255 27.5455 19.8182C27.5455 17.4116 25.5884 15.4545 23.1818 15.4545C20.7753 15.4545 18.8182 17.4116 18.8182 19.8182C18.8182 22.2247 20.7753 24.1818 23.1818 24.1818C23.9891 24.1818 24.7353 23.9473 25.3844 23.5633L33.7505 31.9295C32.6007 33.4087 31.9091 35.2589 31.9091 37.2727C31.9091 39.2865 32.6007 41.1367 33.7505 42.6149L19.9353 56.4313C18.7724 55.3764 17.2353 54.7273 15.5455 54.7273C11.9356 54.7273 9 57.6629 9 61.2727C9 64.8825 11.9356 67.8182 15.5455 67.8182C19.1553 67.8182 22.0909 64.8825 22.0909 61.2727C22.0909 60.1436 21.804 59.0811 21.2989 58.1527L35.2942 44.1575C36.5007 45.0956 37.956 45.724 39.5465 45.9236V57.0073C36.456 57.5287 34.092 60.2167 34.092 63.4545C34.092 67.0644 37.0276 70 40.6375 70C44.2473 70 47.1829 67.0644 47.1829 63.4545C47.1829 60.2178 44.8189 57.5298 41.7284 57.0073V45.9236C43.3189 45.724 44.7742 45.0956 45.9807 44.1575L54.3469 52.5236C53.9618 53.1738 53.7273 53.92 53.7273 54.7273C53.7273 57.1338 55.6844 59.0909 58.0909 59.0909C60.4975 59.0909 62.4545 57.1338 62.4545 54.7273C62.4545 52.3207 60.4975 50.3636 58.0909 50.3636C57.2836 50.3636 56.5375 50.5982 55.8884 50.9822L47.5222 42.616C48.672 41.1367 49.3636 39.2865 49.3636 37.2727C49.3636 35.2589 48.672 33.4087 47.5222 31.9305L58.0658 21.3869C59.2276 22.4418 60.7647 23.0909 62.4545 23.0909C66.0644 23.0909 69 20.1553 69 16.5455C69 12.9356 66.0644 10 62.4545 10ZM21 19.8182C21 18.6149 21.9785 17.6364 23.1818 17.6364C24.3851 17.6364 25.3636 18.6149 25.3636 19.8182C25.3636 21.0215 24.3851 22 23.1818 22C21.9785 22 21 21.0215 21 19.8182ZM15.5455 65.6364C13.1389 65.6364 11.1818 63.6793 11.1818 61.2727C11.1818 58.8662 13.1389 56.9091 15.5455 56.9091C17.952 56.9091 19.9091 58.8662 19.9091 61.2727C19.9091 63.6793 17.952 65.6364 15.5455 65.6364ZM45 63.4545C45 65.8611 43.0429 67.8182 40.6364 67.8182C38.2298 67.8182 36.2727 65.8611 36.2727 63.4545C36.2727 61.048 38.2298 59.0909 40.6364 59.0909C43.0429 59.0909 45 61.048 45 63.4545ZM40.6364 43.8182C37.0265 43.8182 34.0909 40.8825 34.0909 37.2727C34.0909 33.6629 37.0265 30.7273 40.6364 30.7273C44.2462 30.7273 47.1818 33.6629 47.1818 37.2727C47.1818 40.8825 44.2462 43.8182 40.6364 43.8182ZM60.2727 54.7273C60.2727 55.9305 59.2942 56.9091 58.0909 56.9091C56.8876 56.9091 55.9091 55.9305 55.9091 54.7273C55.9091 53.524 56.8876 52.5455 58.0909 52.5455C59.2942 52.5455 60.2727 53.524 60.2727 54.7273ZM62.4545 20.9091C60.048 20.9091 58.0909 18.952 58.0909 16.5455C58.0909 14.1389 60.048 12.1818 62.4545 12.1818C64.8611 12.1818 66.8182 14.1389 66.8182 16.5455C66.8182 18.952 64.8611 20.9091 62.4545 20.9091Z" fill="black"/>
</svg>
