<svg width="60" height="60" viewBox="0 0 60 60" fill="none" xmlns="http://www.w3.org/2000/svg">
<path d="M53.4545 0C49.8447 0 46.9091 2.93564 46.9091 6.54545C46.9091 7.67455 47.196 8.73709 47.7011 9.66545L36.9785 20.388C35.5004 19.2371 33.6502 18.5455 31.6364 18.5455C29.6225 18.5455 27.7724 19.2371 26.2931 20.3869L17.9269 12.0207C18.3109 11.3716 18.5455 10.6255 18.5455 9.81818C18.5455 7.41164 16.5884 5.45455 14.1818 5.45455C11.7753 5.45455 9.81818 7.41164 9.81818 9.81818C9.81818 12.2247 11.7753 14.1818 14.1818 14.1818C14.9891 14.1818 15.7353 13.9473 16.3844 13.5633L24.7505 21.9295C23.6007 23.4087 22.9091 25.2589 22.9091 27.2727C22.9091 29.2865 23.6007 31.1367 24.7505 32.6149L10.9353 46.4313C9.77236 45.3764 8.23527 44.7273 6.54545 44.7273C2.93564 44.7273 0 47.6629 0 51.2727C0 54.8825 2.93564 57.8182 6.54545 57.8182C10.1553 57.8182 13.0909 54.8825 13.0909 51.2727C13.0909 50.1436 12.804 49.0811 12.2989 48.1527L26.2942 34.1575C27.5007 35.0956 28.956 35.724 30.5465 35.9236V47.0073C27.456 47.5287 25.092 50.2167 25.092 53.4545C25.092 57.0644 28.0276 60 31.6375 60C35.2473 60 38.1829 57.0644 38.1829 53.4545C38.1829 50.2178 35.8189 47.5298 32.7284 47.0073V35.9236C34.3189 35.724 35.7742 35.0956 36.9807 34.1575L45.3469 42.5236C44.9618 43.1738 44.7273 43.92 44.7273 44.7273C44.7273 47.1338 46.6844 49.0909 49.0909 49.0909C51.4975 49.0909 53.4545 47.1338 53.4545 44.7273C53.4545 42.3207 51.4975 40.3636 49.0909 40.3636C48.2836 40.3636 47.5375 40.5982 46.8884 40.9822L38.5222 32.616C39.672 31.1367 40.3636 29.2865 40.3636 27.2727C40.3636 25.2589 39.672 23.4087 38.5222 21.9305L49.0658 11.3869C50.2276 12.4418 51.7647 13.0909 53.4545 13.0909C57.0644 13.0909 60 10.1553 60 6.54545C60 2.93564 57.0644 0 53.4545 0ZM12 9.81818C12 8.61491 12.9785 7.63636 14.1818 7.63636C15.3851 7.63636 16.3636 8.61491 16.3636 9.81818C16.3636 11.0215 15.3851 12 14.1818 12C12.9785 12 12 11.0215 12 9.81818ZM6.54545 55.6364C4.13891 55.6364 2.18182 53.6793 2.18182 51.2727C2.18182 48.8662 4.13891 46.9091 6.54545 46.9091C8.952 46.9091 10.9091 48.8662 10.9091 51.2727C10.9091 53.6793 8.952 55.6364 6.54545 55.6364ZM36 53.4545C36 55.8611 34.0429 57.8182 31.6364 57.8182C29.2298 57.8182 27.2727 55.8611 27.2727 53.4545C27.2727 51.048 29.2298 49.0909 31.6364 49.0909C34.0429 49.0909 36 51.048 36 53.4545ZM31.6364 33.8182C28.0265 33.8182 25.0909 30.8825 25.0909 27.2727C25.0909 23.6629 28.0265 20.7273 31.6364 20.7273C35.2462 20.7273 38.1818 23.6629 38.1818 27.2727C38.1818 30.8825 35.2462 33.8182 31.6364 33.8182ZM51.2727 44.7273C51.2727 45.9305 50.2942 46.9091 49.0909 46.9091C47.8876 46.9091 46.9091 45.9305 46.9091 44.7273C46.9091 43.524 47.8876 42.5455 49.0909 42.5455C50.2942 42.5455 51.2727 43.524 51.2727 44.7273ZM53.4545 10.9091C51.048 10.9091 49.0909 8.952 49.0909 6.54545C49.0909 4.13891 51.048 2.18182 53.4545 2.18182C55.8611 2.18182 57.8182 4.13891 57.8182 6.54545C57.8182 8.952 55.8611 10.9091 53.4545 10.9091Z" fill="black"/>
</svg>
